<svg id="baseline-settings-20px" xmlns="http://www.w3.org/2000/svg" width="144" height="144" viewBox="0 0 144 144">
  <path id="Path_4" data-name="Path 4" d="M0,0H144V144H0Z" fill="rgba(0,0,0,0)"/>
  <path id="Path_5" data-name="Path 5" d="M101.061,65.216a46.993,46.993,0,0,0,.36-5.616,35.511,35.511,0,0,0-.432-5.616l12.168-9.5a2.975,2.975,0,0,0,.72-3.672l-11.52-19.944a2.927,2.927,0,0,0-3.528-1.3L84.5,25.328a42.183,42.183,0,0,0-9.72-5.616L72.621,4.448A2.874,2.874,0,0,0,69.741,2H46.7a2.8,2.8,0,0,0-2.808,2.448l-2.16,15.264a43.311,43.311,0,0,0-9.72,5.616l-14.328-5.76a2.847,2.847,0,0,0-3.528,1.3L2.637,40.808a2.79,2.79,0,0,0,.72,3.672l12.168,9.5a33.932,33.932,0,0,0-.072,11.232L3.285,74.72a2.975,2.975,0,0,0-.72,3.672l11.52,19.944a2.927,2.927,0,0,0,3.528,1.3l14.328-5.76a42.183,42.183,0,0,0,9.72,5.616l2.16,15.264A2.929,2.929,0,0,0,46.7,117.2h23.04a2.751,2.751,0,0,0,2.808-2.448l2.16-15.264a43.311,43.311,0,0,0,9.72-5.616l14.328,5.76a2.847,2.847,0,0,0,3.528-1.3l11.52-19.944a2.79,2.79,0,0,0-.72-3.672l-12.024-9.5ZM58.221,81.2a21.6,21.6,0,1,1,21.6-21.6A21.664,21.664,0,0,1,58.221,81.2Z" transform="translate(13.779 12.4)" fill="#fff"/>
</svg>
